<svg aria-hidden="true" style="position: absolute; width: 0; height: 0; overflow: hidden;" version="1.1" xmlns="http://www.w3.org/2000/svg" xmlns:xlink="http://www.w3.org/1999/xlink">
<defs>
<symbol id="icon-Back-Arrow" viewBox="0 0 15 32">
<path d="M14.58 30.72c0.582-0.498 0.641-1.363 0.132-1.932l-11.45-12.788 11.45-12.788c0.509-0.569 0.45-1.434-0.132-1.932s-1.467-0.44-1.977 0.129l-12.257 13.69c-0.462 0.516-0.462 1.287 0 1.803l12.257 13.69c0.509 0.569 1.394 0.627 1.977 0.129z"></path>
</symbol>
<symbol id="icon-Logo" viewBox="0 0 235 32">
<path fill="#262626" style="fill: var(--color1, #262626)" d="M11.959 1.166c1.55 0 2.982 0.374 4.297 1.12s2.347 1.757 3.095 3.033c0.748 1.276 1.122 2.672 1.122 4.191 0 2.306-0.831 4.274-2.491 5.902s-3.669 2.442-6.022 2.442h-6.935v11.802h-5.024v-28.49h11.959zM11.959 12.928c0.97 0 1.792-0.331 2.471-0.996s1.016-1.471 1.016-2.422c0-0.95-0.34-1.757-1.016-2.422-0.678-0.665-1.501-0.996-2.471-0.996h-6.935v6.838l6.935-0.002z"></path>
<path fill="#262626" style="fill: var(--color1, #262626)" d="M40.777 1.166h5.024v28.49h-5.024v-11.762h-12.167v11.762h-5.024v-28.49h5.024v11.762h12.167v-11.762z"></path>
<path fill="#262626" style="fill: var(--color1, #262626)" d="M56.163 3.079c2.228-1.274 4.658-1.913 7.288-1.913s5.060 0.637 7.288 1.913 3.993 3.005 5.295 5.189c1.3 2.184 1.952 4.565 1.952 7.143s-0.65 4.959-1.952 7.143c-1.302 2.184-3.066 3.915-5.295 5.189-2.228 1.276-4.657 1.913-7.288 1.913s-5.060-0.637-7.288-1.913c-2.228-1.274-3.995-3.005-5.295-5.189-1.302-2.184-1.952-4.565-1.952-7.143s0.65-4.959 1.952-7.143c1.3-2.184 3.066-3.913 5.295-5.189zM56.723 22.004c1.855 1.818 4.096 2.728 6.726 2.728s4.872-0.908 6.726-2.728c1.855-1.818 2.783-4.014 2.783-6.593s-0.928-4.775-2.783-6.593c-1.854-1.818-4.097-2.727-6.726-2.727s-4.872 0.91-6.726 2.727c-1.854 1.818-2.782 4.016-2.782 6.593s0.926 4.775 2.782 6.593z"></path>
<path fill="#262626" style="fill: var(--color1, #262626)" d="M79.024 1.166h20.472v4.924h-7.724v23.566h-5.024v-23.566h-7.724v-4.924z"></path>
<path fill="#262626" style="fill: var(--color1, #262626)" d="M107.78 3.079c2.228-1.274 4.657-1.913 7.288-1.913s5.060 0.637 7.288 1.913 3.993 3.005 5.295 5.189c1.3 2.184 1.952 4.565 1.952 7.143s-0.65 4.959-1.952 7.143c-1.302 2.184-3.067 3.915-5.295 5.189-2.228 1.276-4.658 1.913-7.288 1.913s-5.060-0.637-7.288-1.913c-2.229-1.274-3.995-3.005-5.295-5.189-1.302-2.184-1.952-4.565-1.952-7.143s0.65-4.959 1.952-7.143c1.3-2.184 3.066-3.913 5.295-5.189zM108.34 22.004c1.855 1.818 4.096 2.728 6.727 2.728s4.872-0.908 6.726-2.728c1.854-1.818 2.782-4.014 2.782-6.593s-0.928-4.775-2.782-6.593c-1.855-1.818-4.098-2.727-6.726-2.727s-4.872 0.91-6.727 2.727c-1.854 1.818-2.782 4.016-2.782 6.593s0.926 4.775 2.782 6.593z"></path>
<path fill="#30c" style="fill: var(--color2, #30c)" d="M140.482 0.532c2.619-0.225 5.097 0.203 7.431 1.284s4.245 2.654 5.736 4.718c1.49 2.064 2.351 4.381 2.58 6.948 0.229 2.569-0.207 4.996-1.31 7.281-1.103 2.287-2.708 4.162-4.814 5.622-2.106 1.462-4.47 2.304-7.089 2.528l-8.647 0.742-2.533-28.382 8.645-0.742zM142.577 24.008c2.619-0.225 4.765-1.32 6.439-3.289 1.672-1.969 2.401-4.237 2.185-6.806s-1.328-4.679-3.337-6.333c-2.011-1.652-4.325-2.366-6.945-2.142l-3.639 0.313 1.657 18.57 3.639-0.313z"></path>
<path fill="#30c" style="fill: var(--color2, #30c)" d="M180.549 10.060c-0.143 1.595-0.701 3.018-1.672 4.269-0.973 1.252-2.194 2.167-3.664 2.749l3.545 13.051-5.336-0.457-3.297-12.090-5.708-0.49-1.046 11.718-5.005-0.429 2.531-28.382 11.914 1.022c2.343 0.201 4.271 1.184 5.781 2.946 1.511 1.764 2.162 3.795 1.958 6.092zM171.765 12.74c0.966 0.083 1.815-0.177 2.55-0.783 0.735-0.604 1.144-1.372 1.227-2.306 0.082-0.932-0.182-1.766-0.799-2.499s-1.405-1.142-2.371-1.225l-6.909-0.593-0.609 6.812 6.911 0.593z"></path>
<path fill="#30c" style="fill: var(--color2, #30c)" d="M189.598 23.323l-4.914 4.302 23.431 1.32-4.397-4.827-14.12-0.796z"></path>
<path fill="#30c" style="fill: var(--color2, #30c)" d="M188.738 7.683l-4.386-4.814-1.347 22.966 4.923-4.309 0.811-13.843z"></path>
<path fill="#30c" style="fill: var(--color2, #30c)" d="M204.691 6.851l4.911-4.3-23.417-1.32 4.397 4.825 14.108 0.796z"></path>
<path fill="#30c" style="fill: var(--color2, #30c)" d="M206.359 8.65l-0.811 13.826 4.388 4.816 1.346-22.953-4.922 4.311z"></path>
<path fill="#30c" style="fill: var(--color2, #30c)" d="M225.662 0.339c1.538-0.199 3.006-0.011 4.41 0.56 1.402 0.573 2.56 1.442 3.469 2.611 0.911 1.169 1.468 2.506 1.672 4.013 0.307 2.287-0.254 4.342-1.685 6.169-1.429 1.827-3.311 2.891-5.643 3.191l-6.874 0.888 1.572 11.703-4.981 0.643-3.793-28.245 11.853-1.532zM227.23 12.001c0.96-0.123 1.732-0.558 2.315-1.304 0.585-0.746 0.813-1.589 0.687-2.53s-0.572-1.698-1.333-2.271c-0.76-0.573-1.623-0.796-2.583-0.672l-6.874 0.888 0.911 6.779 6.876-0.889z"></path>
</symbol>
<symbol id="icon-plus" viewBox="0 0 32 32">
<path d="M31 12h-11v-11c0-0.552-0.448-1-1-1h-6c-0.552 0-1 0.448-1 1v11h-11c-0.552 0-1 0.448-1 1v6c0 0.552 0.448 1 1 1h11v11c0 0.552 0.448 1 1 1h6c0.552 0 1-0.448 1-1v-11h11c0.552 0 1-0.448 1-1v-6c0-0.552-0.448-1-1-1z"></path>
</symbol>
<symbol id="icon-images" viewBox="0 0 36 32">
<path d="M34 4h-2v-2c0-1.1-0.9-2-2-2h-28c-1.1 0-2 0.9-2 2v24c0 1.1 0.9 2 2 2h2v2c0 1.1 0.9 2 2 2h28c1.1 0 2-0.9 2-2v-24c0-1.1-0.9-2-2-2zM4 6v20h-1.996c-0.001-0.001-0.003-0.002-0.004-0.004v-23.993c0.001-0.001 0.002-0.003 0.004-0.004h27.993c0.001 0.001 0.003 0.002 0.004 0.004v1.996h-24c-1.1 0-2 0.9-2 2v0zM34 29.996c-0.001 0.001-0.002 0.003-0.004 0.004h-27.993c-0.001-0.001-0.003-0.002-0.004-0.004v-23.993c0.001-0.001 0.002-0.003 0.004-0.004h27.993c0.001 0.001 0.003 0.002 0.004 0.004v23.993z"></path>
<path d="M30 11c0 1.657-1.343 3-3 3s-3-1.343-3-3 1.343-3 3-3 3 1.343 3 3z"></path>
<path d="M32 28h-24v-4l7-12 8 10h2l7-6z"></path>
</symbol>
</defs>
</svg>
